<?xml version="1.0" encoding="UTF-8" standalone="no"?>
<svg
   version="1.1"
   id="svg1"
   viewBox="0 0 203.974 56.025726"
     id="defs1">
    <clipPath
       clipPathUnits="userSpaceOnUse"
       id="clipPath154">
      <path
         d="M 0,425.197 H 425.197 V 0 H 0 Z"
         transform="translate(-238.60111,-99.420605)"
         id="path154" />
    </clipPath>
    <clipPath
       clipPathUnits="userSpaceOnUse"
       id="clipPath156">
      <path
         d="M 0,425.197 H 425.197 V 0 H 0 Z"
         transform="translate(-260.82801,-102.1648)"
         id="path156" />
    </clipPath>
    <clipPath
       clipPathUnits="userSpaceOnUse"
       id="clipPath158">
      <path
         d="M 0,425.197 H 425.197 V 0 H 0 Z"
         transform="translate(-285.66141,-94.618505)"
         id="path158" />
    </clipPath>
    <clipPath
       clipPathUnits="userSpaceOnUse"
       id="clipPath160">
      <path
         d="M 0,425.197 H 425.197 V 0 H 0 Z"
         transform="translate(-320.23611,-88.856105)"
         id="path160" />
    </clipPath>
    <clipPath
       clipPathUnits="userSpaceOnUse"
       id="clipPath162">
      <path
         d="M 0,425.197 H 425.197 V 0 H 0 Z"
         transform="translate(-341.77661,-88.856105)"
         id="path162" />
    </clipPath>
    <clipPath
       clipPathUnits="userSpaceOnUse"
       id="clipPath164">
      <path
         d="M 0,425.197 H 425.197 V 0 H 0 Z"
         transform="translate(-209.85751,-66.045702)"
         id="path164" />
    </clipPath>
    <clipPath
       clipPathUnits="userSpaceOnUse"
       id="clipPath166">
      <path
         d="M 0,425.197 H 425.197 V 0 H 0 Z"
         transform="translate(-237.29791,-79.354504)"
         id="path166" />
    </clipPath>
    <clipPath
       clipPathUnits="userSpaceOnUse"
       id="clipPath168">
      <path
         d="M 0,425.197 H 425.197 V 0 H 0 Z"
         transform="translate(-265.83591,-66.045702)"
         id="path168" />
    </clipPath>
    <clipPath
       clipPathUnits="userSpaceOnUse"
       id="clipPath170">
      <path
         d="M 0,425.197 H 425.197 V 0 H 0 Z"
         transform="translate(-294.7852,-66.045702)"
         id="path170" />
    </clipPath>
    <clipPath
       clipPathUnits="userSpaceOnUse"
       id="clipPath172">
      <path
         d="M 0,425.197 H 425.197 V 0 H 0 Z"
         transform="translate(-306.72181,-79.628802)"
         id="path172" />
    </clipPath>
    <clipPath
       clipPathUnits="userSpaceOnUse"
       id="clipPath174">
      <path
         d="M 0,425.197 H 425.197 V 0 H 0 Z"
         id="path174" />
    </clipPath>
    <clipPath
       clipPathUnits="userSpaceOnUse"
       id="clipPath176">
      <path
         d="M 0,425.197 H 425.197 V 0 H 0 Z"
         transform="translate(-348.43101,-66.045702)"
         id="path176" />
    </clipPath>
  <g
     id="layer-MC1"
     transform="translate(-268.46735,-422.84293)">
    <path
       id="path153"
       d="m 0,0 c 0.604,0 1.074,0.146 1.413,0.439 0.338,0.293 0.508,0.649 0.508,1.07 0,0.421 -0.17,0.778 -0.508,1.07 C 1.074,2.872 0.604,3.019 0,3.019 H -1.921 V 0 Z M -10.153,-10.565 V 8.644 H 0.96 c 1.994,0 3.705,-0.32 5.132,-0.961 C 7.519,7.043 8.598,6.178 9.33,5.09 10.061,4.002 10.427,2.808 10.427,1.509 10.427,0.21 10.061,-0.984 9.33,-2.072 8.598,-3.16 7.519,-4.025 6.092,-4.665 4.665,-5.305 2.954,-5.625 0.96,-5.625 h -2.607 v -4.94 z"
       style="fill:#ff601a icc-color(sRGB-IEC61966-2, 0.1, 1, 0.37599182, 0.10198975);fill-opacity:1;fill-rule:nonzero;stroke:none"
       transform="matrix(1.3333333,0,0,-1.3333333,318.1348,434.36853)"
       clip-path="url(#clipPath154)" />
    <path
       id="path155"
       d="M 0,0 -1.482,-5.324 H 1.591 L 0.11,0 Z M -4.116,-13.309 H -12.76 L -4.802,5.9 h 9.879 l 7.957,-19.209 H 4.226 l -1.043,3.183 h -6.256 z"
       style="fill:#ff601a icc-color(sRGB-IEC61966-2, 0.1, 1, 0.37599182, 0.10198975);fill-opacity:1;fill-rule:nonzero;stroke:none"
       transform="matrix(1.3333333,0,0,-1.3333333,347.77067,430.7096)"
       clip-path="url(#clipPath156)" />
    <path
       id="path157"
       d="M 0,0 C 1.116,0 2.058,0.357 2.826,1.07 3.595,1.784 3.979,2.707 3.979,3.842 3.979,4.976 3.595,5.9 2.826,6.613 2.058,7.327 1.116,7.683 0,7.683 H -1.235 V 0 Z M -9.742,-5.762 V 13.446 H 0 c 2.616,0 4.866,-0.43 6.75,-1.29 1.884,-0.86 3.311,-2.017 4.281,-3.471 C 12,7.231 12.485,5.616 12.485,3.842 12.485,2.067 12,0.453 11.031,-1.002 10.061,-2.456 8.634,-3.613 6.75,-4.473 4.866,-5.333 2.616,-5.762 0,-5.762 Z"
       style="fill:#ff601a icc-color(sRGB-IEC61966-2, 0.1, 1, 0.37599182, 0.10198975);fill-opacity:1;fill-rule:nonzero;stroke:none"
       transform="matrix(1.3333333,0,0,-1.3333333,380.88187,440.77133)"
       clip-path="url(#clipPath158)" />
    <path
       id="path159"
       d="m 0,0 h -19.071 v 19.208 h 18.797 v -5.625 h -10.291 v -1.646 h 7.684 V 7.272 h -7.684 V 5.625 H 0 Z"
       style="fill:#ff601a icc-color(sRGB-IEC61966-2, 0.1, 1, 0.37599182, 0.10198975);fill-opacity:1;fill-rule:nonzero;stroke:none"
       transform="matrix(1.3333333,0,0,-1.3333333,426.98147,448.45453)"
       clip-path="url(#clipPath160)" />
    <path
       id="path161"
       d="M 0,0 H -17.836 V 19.208 H -9.33 V 6.723 H 0 Z"
       style="fill:#ff601a icc-color(sRGB-IEC61966-2, 0.1, 1, 0.37599182, 0.10198975);fill-opacity:1;fill-rule:nonzero;stroke:none"
       transform="matrix(1.3333333,0,0,-1.3333333,455.70213,448.45453)"
       clip-path="url(#clipPath162)" />
    <path
       id="path163"
       d="M 0,0 H -8.507 V 19.208 H 0 v -6.036 l 5.762,6.036 h 9.056 L 6.86,11.113 15.367,0 H 6.174 L 1.647,6.064 0,4.391 Z"
       style="fill:#ff601a icc-color(sRGB-IEC61966-2, 0.1, 1, 0.37599182, 0.10198975);fill-opacity:1;fill-rule:nonzero;stroke:none"
       transform="matrix(1.3333333,0,0,-1.3333333,279.81,478.8684)"
       clip-path="url(#clipPath164)" />
    <path
       id="path165"
       d="M 0,0 -1.482,-5.324 H 1.591 L 0.11,0 Z M -4.116,-13.309 H -12.76 L -4.802,5.9 h 9.878 l 7.958,-19.209 H 4.226 l -1.043,3.183 h -6.256 z"
       style="fill:#ff601a icc-color(sRGB-IEC61966-2, 0.1, 1, 0.37599182, 0.10198975);fill-opacity:1;fill-rule:nonzero;stroke:none"
       transform="matrix(1.3333333,0,0,-1.3333333,316.3972,461.12333)"
       clip-path="url(#clipPath166)" />
    <path
       id="path167"
       d="m 0,0 h -9.879 l -7.683,19.208 h 8.726 L -4.939,6.805 h 0.137 l 3.924,12.403 h 8.561 z"
       style="fill:#ff601a icc-color(sRGB-IEC61966-2, 0.1, 1, 0.37599182, 0.10198975);fill-opacity:1;fill-rule:nonzero;stroke:none"
       transform="matrix(1.3333333,0,0,-1.3333333,354.44787,478.8684)"
       clip-path="url(#clipPath168)" />
    <path
       id="path169"
       d="m 0,0 h -19.071 v 19.208 h 18.797 v -5.625 h -10.291 v -1.646 h 7.684 V 7.272 h -7.684 V 5.625 H 0 Z"
       style="fill:#ff601a icc-color(sRGB-IEC61966-2, 0.1, 1, 0.37599182, 0.10198975);fill-opacity:1;fill-rule:nonzero;stroke:none"
       transform="matrix(1.3333333,0,0,-1.3333333,393.04693,478.8684)"
       clip-path="url(#clipPath170)" />
    <path
       id="path171"
       d="m 0,0 v -2.744 h 2.195 c 0.604,0 1.075,0.123 1.414,0.37 0.338,0.247 0.507,0.581 0.507,1.002 0,0.421 -0.169,0.755 -0.507,1.001 C 3.27,-0.124 2.799,0 2.195,0 Z M 13.583,-13.583 H 4.445 l -2.881,5.214 h -1.29 v -5.214 H -8.232 V 5.625 H 3.156 c 2.085,0 3.837,-0.301 5.255,-0.905 1.417,-0.604 2.474,-1.432 3.169,-2.484 0.695,-1.052 1.043,-2.254 1.043,-3.608 0,-1.244 -0.288,-2.356 -0.865,-3.334 -0.576,-0.979 -1.431,-1.77 -2.565,-2.374 z"
       style="fill:#ff601a icc-color(sRGB-IEC61966-2, 0.1, 1, 0.37599182, 0.10198975);fill-opacity:1;fill-rule:nonzero;stroke:none"
       transform="matrix(1.3333333,0,0,-1.3333333,408.9624,460.7576)"
       clip-path="url(#clipPath172)" />
    <path
       id="path173"
       d="m 331.281,66.046 h -8.507 v 19.208 h 8.507 z"
       style="fill:#ff601a icc-color(sRGB-IEC61966-2, 0.1, 1, 0.37599182, 0.10198975);fill-opacity:1;fill-rule:nonzero;stroke:none"
       transform="matrix(1.3333333,0,0,-1.3333333,0,566.92933)"
       clip-path="url(#clipPath174)" />
    <path
       id="path175"
       d="m 0,0 h -8.507 v 12.486 h -5.899 v 6.722 H 5.9 V 12.486 H 0 Z"
       style="fill:#ff601a icc-color(sRGB-IEC61966-2, 0.1, 1, 0.37599182, 0.10198975);fill-opacity:1;fill-rule:nonzero;stroke:none"
       transform="matrix(1.3333333,0,0,-1.3333333,464.57467,478.8684)"
       clip-path="url(#clipPath176)" />
  </g>
</svg>
